{
  "accessors": [
    {
      "bufferView": 2,
      "componentType": 5126,
      "count": 467,
      "max": [
        0.24289000034332275,
        0.31808000802993774,
        0.78764998912811279
      ],
      "min": [
        -0.15404999256134033,
        -0.51486998796463013,
        -9.9999997473787516e-06
      ],
      "type": "VEC3"
    },
    {
      "bufferView": 2,
      "byteOffset": 5604,
      "componentType": 5126,
      "count": 467,
      "max": [
        0.9995429515838623,
        0.99173539876937866,
        0.99965429306030273
      ],
      "min": [
        -0.99999803304672241,
        -0.98757052421569824,
        -0.99987775087356567
      ],
      "type": "VEC3"
    },
    {
      "bufferView": 3,
      "componentType": 5126,
      "count": 467,
      "max": [
        0.99893492460250854,
        0.99999940395355225,
        0.99987691640853882,
        1
      ],
      "min": [
        -0.98082321882247925,
        -0.99314355850219727,
        -0.99970048666000366,
        1
      ],
      "type": "VEC4"
    },
    {
      "bufferView": 1,
      "componentType": 5126,
      "count": 467,
      "max": [
        0.93687999248504639,
        0.98535001277923584
      ],
      "min": [
        0.021829999983310699,
        0.018449999392032623
      ],
      "type": "VEC2"
    },
    {
      "bufferView": 0,
      "componentType": 5125,
      "count": 2034,
      "max": [
        466
      ],
      "min": [
        0
      ],
      "type": "SCALAR"
    }
  ],
  "asset": {
    "extras": {
      "author": "Kyan0s (https://sketchfab.com/kyan0s)",
      "license": "CC-BY-4.0 (http://creativecommons.org/licenses/by/4.0/)",
      "source": "https://sketchfab.com/models/dded999ba2a64b45a3bff2bd7bcab714",
      "title": "Cat #01 - Blacksmith's workshop assets"
    },
    "generator": "Sketchfab-3.19.2",
    "version": "2.0"
  },
  "bufferViews": [
    {
      "buffer": 0,
      "byteLength": 8136,
      "byteOffset": 0,
      "name": "floatBufferViews",
      "target": 34963
    },
    {
      "buffer": 0,
      "byteLength": 3736,
      "byteOffset": 8136,
      "byteStride": 8,
      "name": "floatBufferViews",
      "target": 34962
    },
    {
      "buffer": 0,
      "byteLength": 11208,
      "byteOffset": 11872,
      "byteStride": 12,
      "name": "floatBufferViews",
      "target": 34962
    },
    {
      "buffer": 0,
      "byteLength": 7472,
      "byteOffset": 23080,
      "byteStride": 16,
      "name": "floatBufferViews",
      "target": 34962
    }
  ],
  "buffers": [
    {
      "byteLength": 30552,
      "uri": "scene.bin"
    }
  ],
  "images": [
    {
      "uri": "textures/cat01_metallicRoughness.png"
    },
    {
      "uri": "textures/cat01_normal.png"
    },
    {
      "uri": "textures/cat01_baseColor.png"
    }
  ],
  "materials": [
    {
      "doubleSided": true,
      "emissiveFactor": [
        0,
        0,
        0
      ],
      "name": "cat01",
      "normalTexture": {
        "index": 1,
        "scale": 1,
        "texCoord": 0
      },
      "occlusionTexture": {
        "index": 0,
        "strength": 1,
        "texCoord": 0
      },
      "pbrMetallicRoughness": {
        "baseColorFactor": [
          1,
          1,
          1,
          1
        ],
        "baseColorTexture": {
          "index": 2,
          "texCoord": 0
        },
        "metallicFactor": 0,
        "roughnessFactor": 1
      }
    }
  ],
  "meshes": [
    {
      "name": "cat_01_0",
      "primitives": [
        {
          "attributes": {
            "NORMAL": 1,
            "POSITION": 0,
            "TANGENT": 2,
            "TEXCOORD_0": 3
          },
          "indices": 4,
          "material": 0,
          "mode": 4
        }
      ]
    }
  ],
  "nodes": [
    {
      "children": [
        1
      ],
      "name": "RootNode (gltf orientation matrix)",
      "rotation": [
        -0.70710678118654746,
        -0,
        -0,
        0.70710678118654757
      ]
    },
    {
      "children": [
        2
      ],
      "name": "RootNode (model correction matrix)"
    },
    {
      "children": [
        3
      ],
      "name": "Root"
    },
    {
      "children": [
        4
      ],
      "name": "cat_01"
    },
    {
      "mesh": 0,
      "name": "cat_01_0"
    }
  ],
  "samplers": [
    {
      "magFilter": 9729,
      "minFilter": 9987,
      "wrapS": 10497,
      "wrapT": 10497
    }
  ],
  "scene": 0,
  "scenes": [
    {
      "name": "OSG_Scene",
      "nodes": [
        0
      ]
    }
  ],
  "textures": [
    {
      "sampler": 0,
      "source": 0
    },
    {
      "sampler": 0,
      "source": 1
    },
    {
      "sampler": 0,
      "source": 2
    }
  ]
}

