{
  "accessors": [
    {
      "bufferView": 2,
      "componentType": 5126,
      "count": 1280,
      "max": [
        1.0696099996566772,
        0.68761998414993286,
        2.1573801040649414
      ],
      "min": [
        -2.0006101131439209,
        -0.68761998414993286,
        0
      ],
      "type": "VEC3"
    },
    {
      "bufferView": 2,
      "byteOffset": 15360,
      "componentType": 5126,
      "count": 1280,
      "max": [
        0.98712658882141113,
        0.98598998785018921,
        1
      ],
      "min": [
        -0.99055200815200806,
        -0.98598998785018921,
        -1
      ],
      "type": "VEC3"
    },
    {
      "bufferView": 3,
      "componentType": 5126,
      "count": 1280,
      "max": [
        0.9979318380355835,
        0.9997323751449585,
        1,
        1
      ],
      "min": [
        -0.9998321533203125,
        -0.98797500133514404,
        -1,
        -1
      ],
      "type": "VEC4"
    },
    {
      "bufferView": 1,
      "componentType": 5126,
      "count": 1280,
      "max": [
        0.96064001321792603,
        0.6970900297164917
      ],
      "min": [
        0.048259999603033066,
        0.051079999655485153
      ],
      "type": "VEC2"
    },
    {
      "bufferView": 0,
      "componentType": 5125,
      "count": 1806,
      "max": [
        1279
      ],
      "min": [
        0
      ],
      "type": "SCALAR"
    }
  ],
  "asset": {
    "extras": {
      "author": "VitSh (https://sketchfab.com/VitSh)",
      "license": "CC-BY-4.0 (http://creativecommons.org/licenses/by/4.0/)",
      "source": "https://sketchfab.com/models/27ce91e2f2754ca8bb0b00fe2644ae39",
      "title": "Bear"
    },
    "generator": "Sketchfab-3.18.6",
    "version": "2.0"
  },
  "bufferViews": [
    {
      "buffer": 0,
      "byteLength": 7224,
      "byteOffset": 0,
      "name": "floatBufferViews",
      "target": 34963
    },
    {
      "buffer": 0,
      "byteLength": 10240,
      "byteOffset": 7224,
      "byteStride": 8,
      "name": "floatBufferViews",
      "target": 34962
    },
    {
      "buffer": 0,
      "byteLength": 30720,
      "byteOffset": 17464,
      "byteStride": 12,
      "name": "floatBufferViews",
      "target": 34962
    },
    {
      "buffer": 0,
      "byteLength": 20480,
      "byteOffset": 48184,
      "byteStride": 16,
      "name": "floatBufferViews",
      "target": 34962
    }
  ],
  "buffers": [
    {
      "byteLength": 68664,
      "uri": "scene.bin"
    }
  ],
  "images": [
    {
      "uri": "textures/color_baseColor.png"
    }
  ],
  "materials": [
    {
      "doubleSided": true,
      "emissiveFactor": [
        0,
        0,
        0
      ],
      "name": "color",
      "pbrMetallicRoughness": {
        "baseColorFactor": [
          0.77914110430000005,
          0.77914110430000005,
          0.77914110430000005,
          1
        ],
        "baseColorTexture": {
          "index": 0,
          "texCoord": 0
        },
        "metallicFactor": 0.4417177914,
        "roughnessFactor": 0.60122699390000001
      }
    }
  ],
  "meshes": [
    {
      "name": "Plane_0",
      "primitives": [
        {
          "attributes": {
            "NORMAL": 1,
            "POSITION": 0,
            "TANGENT": 2,
            "TEXCOORD_0": 3
          },
          "indices": 4,
          "material": 0,
          "mode": 4
        }
      ]
    }
  ],
  "nodes": [
    {
      "children": [
        1
      ],
      "name": "RootNode (gltf orientation matrix)",
      "rotation": [
        -0.70710678118654746,
        -0,
        -0,
        0.70710678118654757
      ]
    },
    {
      "children": [
        2
      ],
      "name": "RootNode (model correction matrix)"
    },
    {
      "children": [
        3,
        5,
        7
      ],
      "name": "Root"
    },
    {
      "children": [
        4
      ],
      "name": "Plane"
    },
    {
      "mesh": 0,
      "name": "Plane_0"
    },
    {
      "children": [
        6
      ],
      "matrix": [
        0.79150999999999994,
        0.57406000000000001,
        -0.20967,
        0,
        -0.31749000000000005,
        0.67938000000000009,
        0.66155000000000008,
        0,
        0.52222000000000002,
        -0.45705000000000001,
        0.72000000000000008,
        0,
        0.74584000000000017,
        -1.8787400000000001,
        2.6707200000000002,
        1
      ],
      "name": "Hemi"
    },
    {
      "name": "Hemi"
    },
    {
      "children": [
        8
      ],
      "matrix": [
        0.65490000000000015,
        -0.73737000000000008,
        0.16550000000000004,
        0,
        0.32760000000000006,
        0.47436000000000006,
        0.81711,
        0,
        -0.68101000000000012,
        -0.48091000000000006,
        0.55222000000000004,
        0,
        -2.8447499999999999,
        -1.54908,
        2.9289999999999998,
        1
      ],
      "name": "Hemi.001"
    },
    {
      "name": "Hemi.001"
    }
  ],
  "samplers": [
    {
      "magFilter": 9729,
      "minFilter": 9987,
      "wrapS": 10497,
      "wrapT": 10497
    }
  ],
  "scene": 0,
  "scenes": [
    {
      "name": "OSG_Scene",
      "nodes": [
        0
      ]
    }
  ],
  "textures": [
    {
      "sampler": 0,
      "source": 0
    }
  ]
}

